<svg width="1413" height="947" viewBox="0 0 1413 947" fill="none" xmlns="http://www.w3.org/2000/svg">
<path fill-rule="evenodd" clip-rule="evenodd" d="M780.647 207.702L772.88 265.677L770.826 11.6685C770.719 -1.58612 789.725 -3.87506 792.768 9.02605C793.019 10.0921 793.112 11.1894 793.042 12.2824L780.647 207.702ZM547.048 415.862L553.147 369.969L562.962 215.252C563.016 214.412 562.946 213.569 562.757 212.749C560.424 202.665 545.57 204.414 545.642 214.764L547.048 415.862ZM13.8905 652.268C13.0572 657.174 5.86978 656.727 5.65115 651.755L0.0127438 523.533C-0.537049 511.03 16.8619 507.417 21.336 519.104C21.902 520.583 22.1431 522.166 22.0429 523.746L13.8905 652.268ZM473.141 862.67L465.274 922.228L463.655 661.219C463.573 647.923 482.667 645.714 485.623 658.677C485.861 659.719 485.947 660.789 485.879 661.855L473.141 862.67ZM1051 321.309L1059.08 258.424L1072.54 46.2694C1072.6 45.2562 1072.53 44.2391 1072.31 43.2462C1069.53 30.1631 1050.26 32.2166 1050.3 45.5931L1051 321.309ZM737.567 591.19L727.834 668.233L727.696 330.358C727.689 314.449 750.637 312.126 753.819 327.713C754.053 328.856 754.133 330.024 754.06 331.188L737.567 591.19ZM560.599 583.027C560.837 586.66 566.056 586.983 566.742 583.408L571.75 504.457C571.837 503.081 571.575 501.705 570.987 500.457C567.14 492.288 554.841 495.467 555.434 504.476L560.599 583.027ZM1346.17 227.589C1345.23 232.355 1338.28 231.925 1337.94 227.079L1330.75 126.468C1329.9 114.489 1346.17 110.075 1351.49 120.845C1352.33 122.562 1352.72 124.471 1352.59 126.382L1346.17 227.589ZM924.437 388.158C924.656 393.13 931.844 393.577 932.677 388.671L940.829 260.15C940.929 258.57 940.688 256.987 940.122 255.508C935.648 243.82 918.249 247.434 918.799 259.936L924.437 388.158ZM859.917 825.403L852.961 876.862L854.661 650.958C854.741 640.263 870.176 638.815 872.244 649.309C872.397 650.083 872.445 650.873 872.389 651.66L859.917 825.403ZM997.135 637.907C997.177 641.486 1002.4 641.813 1002.89 638.268L1011.12 508.556C1011.17 507.756 1011.1 506.953 1010.9 506.175C1008.66 497.249 995.503 498.953 995.611 508.155L997.135 637.907ZM392.316 327.215L383.887 395.619L384.708 95.5314C384.745 82.0373 404.256 80.2165 406.789 93.4707C406.965 94.3918 407.024 95.3313 406.965 96.2671L392.316 327.215ZM99.064 418.597L107.629 348.043L122.742 109.777C122.8 108.869 122.746 107.956 122.582 107.061C120.139 93.7477 100.541 95.4859 100.479 109.021L99.064 418.597ZM275.212 492.717C274.719 496.284 269.463 495.955 269.419 492.355L267.833 362.621C267.72 353.367 280.946 351.638 283.216 360.611C283.415 361.397 283.49 362.21 283.439 363.02L275.212 492.717ZM173.364 946.696L181.736 879.175L196.195 651.233C196.255 650.285 196.194 649.334 196.013 648.402C193.441 635.173 173.967 637.029 173.941 650.506L173.364 946.696ZM1186.21 500.21C1185.43 505.181 1178.13 504.726 1177.97 499.696L1173.36 353.974C1172.96 341.221 1190.9 338.025 1194.92 350.133C1195.37 351.482 1195.56 352.905 1195.47 354.324L1186.21 500.21ZM1185.66 883.947C1185.7 889.086 1193.21 889.556 1193.9 884.463L1206.22 690.198C1206.29 689.099 1206.19 687.996 1205.94 686.925C1202.88 674.037 1183.89 676.343 1184 689.589L1185.66 883.947ZM1404.68 874.671C1403.84 879.577 1396.66 879.13 1396.44 874.158L1390.8 745.936C1390.25 733.434 1407.65 729.82 1412.12 741.508C1412.69 742.987 1412.93 744.57 1412.83 746.15L1404.68 874.671ZM1381.82 561.036C1381.86 563.506 1385.46 563.731 1385.81 561.286L1391.14 477.332C1391.18 476.741 1391.12 476.148 1390.96 475.577C1389.3 469.471 1380.29 470.755 1380.39 477.083L1381.82 561.036Z" fill="#B2B2B2"/>
</svg>
