<svg width="198" height="89" viewBox="0 0 198 89" fill="none" xmlns="http://www.w3.org/2000/svg">
<path d="M195.571 0.53368L83.9948 25.0466C81.6577 25.56 82.0311 29 84.424 29L196 29C197.105 29 198 28.1046 198 27V2.48709C198 1.20957 196.819 0.25955 195.571 0.53368Z" fill="#1E1E1E"/>
<path d="M5.20312 40.3672H24.7734C27.1641 40.3672 29.2422 40.625 31.0078 41.1406C32.7891 41.6406 34.2656 42.3359 35.4375 43.2266C36.6094 44.1172 37.4766 45.1797 38.0391 46.4141C38.6172 47.6328 38.9062 48.9531 38.9062 50.375C38.9062 52.7031 38.1719 54.7422 36.7031 56.4922C38.3906 57.4922 39.6484 58.7891 40.4766 60.3828C41.3047 61.9766 41.7187 63.7891 41.7187 65.8203C41.7187 67.5234 41.4297 69.0625 40.8516 70.4375C40.2891 71.8125 39.4219 72.9922 38.25 73.9766C37.0937 74.9453 35.625 75.6953 33.8437 76.2266C32.0781 76.7422 29.9922 77 27.5859 77H5.20312V40.3672ZM27.6328 54.4297C28.2734 54.4297 28.8984 54.4531 29.5078 54.5C30.5547 53.5 31.0781 52.3594 31.0781 51.0781C31.0781 49.75 30.5547 48.7266 29.5078 48.0078C28.4766 47.2734 26.9609 46.9062 24.9609 46.9062H12.6328V54.4297H27.6328ZM27.7734 70.5312C29.7734 70.5312 31.2891 70.1016 32.3203 69.2422C33.3672 68.3828 33.8906 67.1719 33.8906 65.6094C33.8906 64.0469 33.3672 62.8281 32.3203 61.9531C31.2891 61.0781 29.7734 60.6406 27.7734 60.6406H12.6328V70.5312H27.7734ZM46.6059 63.0781C46.6059 61.2031 46.9887 59.4141 47.7544 57.7109C48.52 55.9922 49.6216 54.4766 51.0591 53.1641C52.4966 51.8516 54.2544 50.8047 56.3325 50.0234C58.4262 49.2422 60.8012 48.8516 63.4575 48.8516C66.0981 48.8516 68.4731 49.25 70.5825 50.0469C72.7075 50.8281 74.5044 51.9062 75.9731 53.2812C77.4575 54.6562 78.5903 56.2734 79.3716 58.1328C80.1684 59.9922 80.5669 61.9844 80.5669 64.1094C80.5669 64.375 80.5591 64.6641 80.5434 64.9766C80.5434 65.2734 80.5278 65.5469 80.4966 65.7969H54.3403C54.6372 66.625 55.1137 67.3828 55.77 68.0703C56.4419 68.7578 57.2778 69.3516 58.2778 69.8516C59.2778 70.3516 60.4341 70.7422 61.7466 71.0234C63.0591 71.2891 64.5122 71.4219 66.1059 71.4219C67.6997 71.4219 69.2856 71.2578 70.8637 70.9297C72.4419 70.5859 73.9497 70.1562 75.3872 69.6406L77.7309 74.9375C76.8247 75.3594 75.9028 75.7344 74.9653 76.0625C74.0434 76.375 73.0747 76.6406 72.0591 76.8594C71.0591 77.0625 70.0044 77.2187 68.895 77.3281C67.8012 77.4375 66.645 77.4922 65.4262 77.4922C62.3169 77.4922 59.5903 77.1172 57.2466 76.3672C54.9028 75.6172 52.9419 74.5937 51.3637 73.2969C49.7856 72 48.5981 70.4766 47.8012 68.7266C47.0044 66.9766 46.6059 65.0937 46.6059 63.0781ZM73.2075 60.3828C72.9575 59.6172 72.5669 58.9062 72.0356 58.25C71.52 57.5781 70.8716 57 70.0903 56.5156C69.3091 56.0156 68.4028 55.625 67.3716 55.3437C66.3403 55.0625 65.2075 54.9219 63.9731 54.9219C62.6606 54.9219 61.4653 55.0703 60.3872 55.3672C59.3091 55.6641 58.3637 56.0625 57.5512 56.5625C56.7387 57.0625 56.0591 57.6406 55.5122 58.2969C54.9809 58.9531 54.5903 59.6484 54.3403 60.3828H73.2075ZM87.7509 38.1172H94.6884V77H87.7509V38.1172ZM103.302 38.1172H110.24V77H103.302V38.1172ZM132.025 40.3672H139.9L157.619 77H149.814L146.885 70.8359H125.486L122.65 77H114.822L132.025 40.3672ZM143.955 64.7187L136.033 48.0781L128.322 64.7187H143.955ZM165.623 45.5703C164.936 45.5703 164.311 45.4766 163.748 45.2891C163.202 45.0859 162.733 44.8203 162.342 44.4922C161.952 44.1484 161.647 43.7578 161.428 43.3203C161.225 42.8672 161.123 42.3906 161.123 41.8906C161.123 41.375 161.225 40.8984 161.428 40.4609C161.647 40.0078 161.952 39.6172 162.342 39.2891C162.733 38.9609 163.202 38.7031 163.748 38.5156C164.311 38.3125 164.936 38.2109 165.623 38.2109C166.327 38.2109 166.952 38.3125 167.498 38.5156C168.061 38.7031 168.537 38.9609 168.928 39.2891C169.319 39.6172 169.616 40.0078 169.819 40.4609C170.037 40.8984 170.147 41.375 170.147 41.8906C170.147 42.3906 170.037 42.8672 169.819 43.3203C169.616 43.7578 169.319 44.1484 168.928 44.4922C168.537 44.8203 168.061 45.0859 167.498 45.2891C166.952 45.4766 166.327 45.5703 165.623 45.5703ZM162.155 49.3437H169.092V77H162.155V49.3437ZM177.518 49.3437H184.456V53.3281C185.987 52.1875 187.604 51.2031 189.307 50.375C191.011 49.5469 192.706 48.9141 194.393 48.4766L196.432 54.8281C193.761 55.0937 191.409 55.6953 189.378 56.6328C187.362 57.5547 185.722 58.8594 184.456 60.5469V77H177.518V49.3437Z" fill="#1E1E1E"/>
</svg>
