<svg width="198" height="89" viewBox="0 0 198 89" fill="none" xmlns="http://www.w3.org/2000/svg">
<path d="M195.571 0.53368L83.9948 25.0466C81.6577 25.56 82.0311 29 84.424 29L196 29C197.105 29 198 28.1046 198 27V2.48709C198 1.20957 196.819 0.25955 195.571 0.53368Z" fill="#9C8F6D"/>
<path d="M7.04687 58.5781C7.04687 55.8125 7.55469 53.2812 8.57031 50.9844C9.58594 48.6875 11.0078 46.7187 12.8359 45.0781C14.6797 43.4219 16.8828 42.1406 19.4453 41.2344C22.0234 40.3281 24.875 39.875 28 39.875C31.1094 39.875 33.9531 40.3281 36.5312 41.2344C39.1094 42.1406 41.3125 43.4219 43.1406 45.0781C44.9844 46.7187 46.4141 48.6875 47.4297 50.9844C48.4453 53.2812 48.9531 55.8125 48.9531 58.5781C48.9531 61.3594 48.4453 63.9141 47.4297 66.2422C46.4141 68.5547 44.9844 70.5469 43.1406 72.2187C41.3125 73.8906 39.1094 75.1953 36.5312 76.1328C33.9531 77.0547 31.1094 77.5156 28 77.5156C24.875 77.5156 22.0234 77.0547 19.4453 76.1328C16.8828 75.1953 14.6797 73.8906 12.8359 72.2187C11.0078 70.5469 9.58594 68.5547 8.57031 66.2422C7.55469 63.9141 7.04687 61.3594 7.04687 58.5781ZM14.4766 58.5781C14.4766 60.4687 14.8125 62.1719 15.4844 63.6875C16.1719 65.2031 17.1172 66.5 18.3203 67.5781C19.5391 68.6406 20.9687 69.4609 22.6094 70.0391C24.2656 70.6172 26.0625 70.9062 28 70.9062C29.9375 70.9062 31.7266 70.6172 33.3672 70.0391C35.0234 69.4609 36.4531 68.6406 37.6562 67.5781C38.8594 66.5 39.8047 65.2031 40.4922 63.6875C41.1797 62.1719 41.5234 60.4687 41.5234 58.5781C41.5234 56.6875 41.1797 54.9922 40.4922 53.4922C39.8047 51.9922 38.8594 50.7266 37.6562 49.6953C36.4531 48.6484 35.0234 47.8516 33.3672 47.3047C31.7266 46.7578 29.9375 46.4844 28 46.4844C26.0625 46.4844 24.2656 46.7578 22.6094 47.3047C20.9687 47.8516 19.5391 48.6484 18.3203 49.6953C17.1172 50.7266 16.1719 51.9922 15.4844 53.4922C14.8125 54.9922 14.4766 56.6875 14.4766 58.5781ZM55.8559 49.3437H62.7934V53.3281C64.3247 52.1875 65.9419 51.2031 67.645 50.375C69.3481 49.5469 71.0434 48.9141 72.7309 48.4766L74.77 54.8281C72.0981 55.0937 69.7466 55.6953 67.7153 56.6328C65.6997 57.5547 64.0591 58.8594 62.7934 60.5469V77H55.8559V49.3437ZM79.2822 38.1172H86.2197V51.9453C86.8291 51.5234 87.5478 51.125 88.3759 50.75C89.2041 50.375 90.0947 50.0469 91.0478 49.7656C92.0009 49.4844 92.9853 49.2656 94.0009 49.1094C95.0166 48.9375 96.0322 48.8516 97.0478 48.8516C99.3916 48.8516 101.54 49.1953 103.493 49.8828C105.462 50.5703 107.149 51.5391 108.556 52.7891C109.962 54.0391 111.056 55.5391 111.837 57.2891C112.634 59.0234 113.032 60.9453 113.032 63.0547C113.032 65.2578 112.618 67.25 111.79 69.0312C110.962 70.7969 109.813 72.3125 108.345 73.5781C106.892 74.8281 105.157 75.7969 103.142 76.4844C101.142 77.1562 98.9697 77.4922 96.6259 77.4922C95.6259 77.4922 94.6337 77.4297 93.6494 77.3047C92.6806 77.1797 91.7431 77.0078 90.8369 76.7891C89.9462 76.5703 89.1025 76.3125 88.3056 76.0156C87.5244 75.7031 86.8291 75.3672 86.2197 75.0078V77H79.2822V38.1172ZM86.2197 68.3047C86.9228 68.8672 87.665 69.3437 88.4462 69.7344C89.2275 70.125 90.0244 70.4453 90.8369 70.6953C91.6494 70.9453 92.4697 71.1328 93.2978 71.2578C94.1259 71.3672 94.9306 71.4219 95.7119 71.4219C97.3056 71.4219 98.7197 71.2109 99.9541 70.7891C101.204 70.3516 102.251 69.7578 103.095 69.0078C103.954 68.2578 104.61 67.375 105.063 66.3594C105.517 65.3437 105.743 64.2422 105.743 63.0547C105.743 61.9453 105.517 60.8984 105.063 59.9141C104.626 58.9297 103.985 58.0703 103.142 57.3359C102.313 56.5859 101.306 56 100.118 55.5781C98.9462 55.1406 97.6259 54.9219 96.1572 54.9219C95.2197 54.9219 94.2822 55.0156 93.3447 55.2031C92.4072 55.375 91.5009 55.625 90.6259 55.9531C89.7666 56.2812 88.9541 56.6797 88.1884 57.1484C87.4384 57.6172 86.7822 58.1406 86.2197 58.7187V68.3047ZM122.63 45.5703C121.943 45.5703 121.318 45.4766 120.755 45.2891C120.208 45.0859 119.74 44.8203 119.349 44.4922C118.958 44.1484 118.654 43.7578 118.435 43.3203C118.232 42.8672 118.13 42.3906 118.13 41.8906C118.13 41.375 118.232 40.8984 118.435 40.4609C118.654 40.0078 118.958 39.6172 119.349 39.2891C119.74 38.9609 120.208 38.7031 120.755 38.5156C121.318 38.3125 121.943 38.2109 122.63 38.2109C123.333 38.2109 123.958 38.3125 124.505 38.5156C125.068 38.7031 125.544 38.9609 125.935 39.2891C126.326 39.6172 126.622 40.0078 126.826 40.4609C127.044 40.8984 127.154 41.375 127.154 41.8906C127.154 42.3906 127.044 42.8672 126.826 43.3203C126.622 43.7578 126.326 44.1484 125.935 44.4922C125.544 44.8203 125.068 45.0859 124.505 45.2891C123.958 45.4766 123.333 45.5703 122.63 45.5703ZM119.162 49.3437H126.099V77H119.162V49.3437ZM138.697 54.5469H132.017V49.3437H138.697V40.7422H145.635V49.3437H152.314V54.5469H145.635V77H138.697V54.5469ZM158.139 62.6562L179.561 40.3672H186.991V62.6562H194.889V69.1719H186.991V77H179.561V69.1719H158.092L158.139 62.6562ZM179.561 62.6562V49.7656L167.045 62.6562H179.561Z" fill="#9C8F6D"/>
</svg>
